<?xml version="1.0" encoding="iso-8859-1"?>
<!-- Generator: Adobe Illustrator 19.0.0, SVG Export Plug-In . SVG Version: 6.00 Build 0)  -->
<svg version="1.1" id="Layer_1" xmlns="http://www.w3.org/2000/svg" xmlns:xlink="http://www.w3.org/1999/xlink" x="0px" y="0px"
	 viewBox="0 0 512.001 512.001" style="enable-background:new 0 0 512.001 512.001;" xml:space="preserve">
<path style="fill:#FFDFA1;" d="M391.834,92.953L391.834,92.953c5.831-1.958,12.145,1.181,14.103,7.012l93.109,277.251
	c1.958,5.831-1.181,12.145-7.012,14.103L214.85,484.404c-5.857,1.967-12.196-1.21-14.125-7.08L110.76,203.662
	c-1.892-5.755,1.162-11.965,6.875-13.98L391.834,92.953z"/>
<path style="fill:#EFD299;" d="M344.176,380.596l26.963-280.344l-253.505,89.43c-5.713,2.015-8.767,8.226-6.875,13.98
	l56.284,171.208l164.848,15.854C338.08,391.32,343.58,386.785,344.176,380.596z"/>
<path style="fill:#FFEFCA;" d="M309.285,366.378L18.402,338.402c-6.19-0.596-10.723-6.096-10.129-12.284L36.25,35.235
	c0.596-6.19,6.096-10.723,12.284-10.129l290.882,27.976c6.19,0.596,10.723,6.096,10.129,12.284l-27.976,290.882
	C320.973,362.439,315.473,366.974,309.285,366.378z"/>
<path style="fill:#FFDFA1;" d="M30.385,94.161l313.731,31.589l5.493-60.437c0.561-6.17-3.968-11.632-10.135-12.226L48.503,25.103
	c-6.176-0.594-11.67,3.922-12.281,10.097L30.385,94.161z"/>
<path d="M1.898,342.605c1.4,1.698,3.418,2.772,5.61,2.982l313.296,30.133c0.27,0.025,0.538,0.039,0.805,0.039
	c4.226,0,7.84-3.214,8.254-7.508l30.134-313.294c0.21-2.191-0.458-4.377-1.858-6.076c-1.4-1.698-3.418-2.772-5.61-2.982
	L39.229,15.765c-4.566-0.439-8.619,2.906-9.058,7.469L0.038,336.529C-0.172,338.721,0.496,340.906,1.898,342.605z M342.672,61.63
	l-5.365,55.786L40.691,87.291l5.213-54.204L342.672,61.63z M39.101,103.82l296.616,30.124l-21.589,224.454L17.361,329.856
	L39.101,103.82z"/>
<path d="M400.855,81.538l-10.557,3.545c-4.347,1.459-6.687,6.165-5.227,10.512c1.459,4.347,6.169,6.688,10.513,5.227l2.688-0.902
	l94.913,282.626L210.56,477.461l-20.036-59.66c-1.46-4.347-6.166-6.691-10.513-5.227c-4.347,1.459-6.687,6.165-5.227,10.512
	l22.678,67.53c0.701,2.088,2.203,3.81,4.174,4.791c1.159,0.577,2.425,0.868,3.696,0.868c0.89,0,1.783-0.143,2.643-0.433
	l298.365-100.2c4.347-1.459,6.687-6.165,5.227-10.512L411.368,86.765C409.908,82.418,405.202,80.075,400.855,81.538z"/>
<path d="M267.974,208.653L91.491,190.729c-4.561-0.449-8.635,2.858-9.097,7.421c-0.464,4.561,2.859,8.635,7.421,9.099
	l176.483,17.923c0.286,0.028,0.568,0.043,0.849,0.043c4.208,0,7.816-3.188,8.25-7.464
	C275.858,213.189,272.535,209.117,267.974,208.653z"/>
<path d="M261.389,274.942L84.906,257.02c-4.567-0.464-8.635,2.859-9.097,7.421s2.859,8.635,7.421,9.099l176.483,17.922
	c0.286,0.029,0.568,0.043,0.849,0.043c4.208,0,7.816-3.188,8.25-7.464C269.272,279.479,265.95,275.406,261.389,274.942z"/>
<g>
</g>
<g>
</g>
<g>
</g>
<g>
</g>
<g>
</g>
<g>
</g>
<g>
</g>
<g>
</g>
<g>
</g>
<g>
</g>
<g>
</g>
<g>
</g>
<g>
</g>
<g>
</g>
<g>
</g>
</svg>
